<?xml version="1.0" standalone="no"?>
<!DOCTYPE svg PUBLIC "-//W3C//DTD SVG 20010904//EN"
 "http://www.w3.org/TR/2001/REC-SVG-20010904/DTD/svg10.dtd">
<svg version="1.0" xmlns="http://www.w3.org/2000/svg"
 width="300.000000pt" height="300.000000pt" viewBox="0 0 300.000000 300.000000"
 preserveAspectRatio="xMidYMid meet">
<metadata>
Created by potrace 1.10, written by Peter Selinger 2001-2011
</metadata>
<g transform="translate(0.000000,300.000000) scale(0.100000,-0.100000)"
fill="#000000" stroke="none">
<path d="M1500 2035 c0 -41 3 -56 13 -52 7 2 12 22 12 52 0 30 -5 50 -12 53
-10 3 -13 -12 -13 -53z"/>
<path d="M1210 2000 c0 -21 35 -80 47 -80 19 0 16 18 -8 56 -20 33 -39 44 -39
24z"/>
<path d="M1770 1970 c-20 -39 -19 -67 1 -54 9 5 49 78 49 89 0 3 -7 5 -15 5
-8 0 -24 -18 -35 -40z"/>
<path d="M1283 1873 c126 -221 173 -303 187 -323 11 -16 16 -36 13 -52 -4 -20
0 -28 17 -33 39 -12 66 29 35 55 -12 10 -15 40 -15 151 0 96 -3 139 -11 139
-8 0 -10 -42 -7 -140 2 -77 1 -140 -2 -140 -3 0 -20 28 -38 63 -73 135 -164
287 -174 287 -5 0 -7 -3 -5 -7z"/>
<path d="M996 1791 c-7 -10 7 -22 51 -45 38 -19 43 -20 43 -3 0 6 -18 22 -40
35 -44 25 -47 26 -54 13z"/>
<path d="M1966 1774 c-26 -17 -35 -29 -28 -36 12 -12 92 31 92 50 0 18 -21 14
-64 -14z"/>
<path d="M917 1504 c-14 -15 7 -24 54 -24 37 0 49 4 49 15 0 11 -12 15 -48 15
-27 0 -52 -3 -55 -6z"/>
<path d="M2007 1504 c-17 -17 -3 -24 49 -24 40 0 55 4 52 13 -5 13 -89 22
-101 11z"/>
<path d="M1623 1413 c15 -4 17 -18 17 -103 0 -85 -2 -99 -17 -103 -10 -3 16
-5 58 -6 63 -1 79 2 93 18 23 26 17 72 -11 86 -22 11 -22 12 -3 28 11 9 20 26
20 36 0 34 -38 51 -110 50 -36 -1 -57 -3 -47 -6z m111 -19 c30 -30 10 -74 -34
-74 -29 0 -30 2 -30 45 0 41 2 45 24 45 14 0 32 -7 40 -16z m7 -94 c22 -12 26
-59 7 -78 -7 -7 -27 -12 -45 -12 -33 0 -33 0 -33 50 0 47 2 50 26 50 14 0 34
-5 45 -10z"/>
<path d="M1865 1323 c-21 -54 -45 -104 -53 -110 -13 -11 -10 -13 19 -13 24 0
30 3 20 9 -12 8 -13 14 -3 35 9 20 19 26 45 26 27 0 36 -5 46 -27 10 -21 9
-28 -1 -34 -8 -5 18 -9 61 -9 62 0 72 2 62 14 -8 9 -11 43 -9 92 l3 77 60 -91
c33 -50 63 -91 68 -92 4 0 7 43 7 96 0 80 3 99 18 110 15 12 12 13 -23 13 -35
0 -38 -1 -22 -13 13 -10 17 -28 17 -81 l0 -69 -57 82 c-51 71 -62 82 -88 82
-27 -1 -28 -2 -12 -14 15 -12 17 -27 15 -102 -3 -88 -3 -89 -29 -92 -25 -3
-28 2 -60 102 -19 58 -37 106 -40 106 -3 0 -23 -44 -44 -97z m54 -30 c1 -8
-11 -13 -28 -13 l-30 0 16 47 16 47 13 -34 c7 -19 13 -41 13 -47z"/>
<path d="M2243 1413 c15 -4 17 -18 17 -103 0 -85 -2 -99 -17 -103 -10 -3 5 -5
32 -5 28 0 42 2 33 5 -14 3 -18 15 -18 54 0 27 4 49 10 49 5 0 23 -21 41 -46
25 -37 29 -48 18 -55 -9 -6 1 -9 30 -9 38 0 42 2 29 13 -8 6 -32 37 -52 67
l-36 54 42 43 42 43 -39 0 c-34 0 -37 -2 -22 -13 16 -11 14 -16 -23 -52 l-40
-39 0 46 c0 36 4 48 18 51 9 3 -5 5 -33 5 -27 0 -42 -2 -32 -5z"/>
<path d="M644 1385 c-3 -7 -4 -24 -2 -37 4 -23 5 -23 16 5 7 17 19 27 32 27
19 0 20 -6 20 -94 0 -66 -4 -96 -12 -99 -7 -3 7 -5 32 -5 25 0 37 2 28 5 -16
4 -18 17 -18 99 0 92 0 94 24 94 17 0 26 -7 30 -25 9 -34 24 -24 18 13 -4 28
-4 28 -83 29 -59 1 -82 -2 -85 -12z"/>
<path d="M830 1388 c0 -5 5 -8 10 -8 15 0 13 -187 -2 -193 -7 -3 7 -6 32 -6
35 0 41 2 28 10 -15 8 -18 25 -18 99 0 73 3 90 15 90 8 0 15 3 15 8 0 4 -18 7
-40 7 -22 0 -40 -3 -40 -7z"/>
<path d="M930 1390 c0 -5 5 -10 10 -10 15 0 13 -173 -2 -188 -9 -9 -4 -12 23
-12 31 1 32 2 16 14 -15 12 -17 27 -15 97 l3 82 35 -96 c19 -54 37 -97 40 -97
3 0 22 42 43 93 l36 92 1 -87 c0 -74 -3 -87 -17 -91 -10 -3 5 -5 32 -5 28 0
42 2 33 5 -16 4 -18 17 -18 98 0 66 4 95 13 98 6 2 9 7 6 11 -3 4 -17 2 -31
-3 -18 -7 -32 -29 -55 -88 -35 -88 -28 -91 -70 27 -9 25 -19 48 -22 51 -11 12
-61 19 -61 9z"/>
<path d="M1200 1388 c0 -4 5 -8 10 -8 6 0 10 -38 10 -94 0 -82 -2 -95 -17 -99
-10 -3 21 -5 70 -6 l87 -1 -1 38 -1 37 -14 -32 c-12 -29 -19 -33 -54 -33 l-40
0 0 45 c0 38 3 45 20 45 11 0 20 -6 20 -14 0 -8 5 -18 10 -21 6 -4 10 12 10
39 0 47 -13 62 -23 26 -3 -11 -12 -20 -21 -20 -12 0 -16 10 -16 45 l0 45 40 0
c34 0 41 -4 46 -25 9 -36 26 -31 22 8 l-3 32 -77 0 c-43 1 -78 -3 -78 -7z"/>
<path d="M1404 1374 c-28 -42 -10 -75 51 -96 27 -9 54 -23 60 -32 16 -25 -7
-51 -48 -54 -31 -3 -38 1 -52 27 -20 40 -25 39 -25 -3 0 -28 4 -34 23 -34 12
0 34 -3 49 -7 21 -6 32 -2 52 18 47 47 27 92 -50 117 -37 11 -50 20 -52 37 -6
45 79 57 93 13 9 -30 25 -24 25 9 0 28 -1 28 -55 30 -48 1 -57 -2 -71 -25z"/>
</g>
</svg>
