<?xml version="1.0" standalone="no"?>
<!DOCTYPE svg PUBLIC "-//W3C//DTD SVG 20010904//EN"
 "http://www.w3.org/TR/2001/REC-SVG-20010904/DTD/svg10.dtd">
<svg version="1.0" xmlns="http://www.w3.org/2000/svg"
 width="300.000000pt" height="300.000000pt" viewBox="0 0 300.000000 300.000000"
 preserveAspectRatio="xMidYMid meet">
<metadata>
Created by potrace 1.10, written by Peter Selinger 2001-2011
</metadata>
<g transform="translate(0.000000,300.000000) scale(0.100000,-0.100000)"
fill="#000000" stroke="none">
<path d="M930 2651 l-525 -287 -3 -52 -3 -52 1076 0 1076 0 -3 52 -3 52 -528
288 c-291 158 -536 288 -545 287 -10 0 -253 -130 -542 -288z m1068 -35 c272
-148 496 -275 499 -283 3 -8 3 -16 0 -19 -3 -3 -464 -6 -1024 -6 -981 0 -1018
1 -1018 18 0 26 988 566 1025 561 14 -1 247 -124 518 -271z"/>
<path d="M1449 2828 c-53 -18 -784 -399 -806 -420 -13 -12 -23 -31 -21 -42 7
-46 8 -46 851 -46 696 0 802 2 827 15 18 9 30 24 30 35 0 34 -37 56 -495 290
-121 62 -234 121 -251 131 -54 32 -107 47 -135 37z m94 -62 c58 -32 163 -86
592 -306 99 -51 181 -93 182 -94 1 0 -379 -1 -843 -1 -464 0 -844 1 -844 1 0
1 98 52 218 113 119 60 307 157 417 214 110 58 204 105 208 106 5 0 36 -14 70
-33z"/>
<path d="M632 2074 c-48 -33 -7 -103 52 -88 l26 6 0 -611 0 -611 -38 0 c-45 0
-62 -14 -62 -50 0 -48 8 -50 250 -50 207 0 228 2 243 18 35 38 6 82 -54 82
l-34 0 2 607 3 608 36 0 c58 0 82 47 44 85 -19 19 -33 20 -233 20 -176 0 -216
-3 -235 -16z m415 -40 c-4 -4 -17 -12 -29 -18 -48 -24 -48 -23 -45 -648 l2
-586 24 -26 c14 -14 31 -26 38 -26 8 0 11 -4 8 -10 -8 -14 -365 -14 -365 0 0
6 6 10 14 10 8 0 24 12 35 26 21 26 21 35 21 619 0 590 0 592 -21 619 -12 15
-31 32 -43 36 -13 5 55 9 173 9 107 1 191 -2 188 -5z"/>
<path d="M799 2001 l-29 -29 0 -595 0 -594 25 -27 c34 -36 101 -37 135 -1 l23
25 0 595 0 595 -28 30 c-39 41 -86 41 -126 1z m111 -623 l0 -608 -50 0 -50 0
0 608 0 607 50 0 50 0 0 -607z"/>
<path d="M1242 2074 c-48 -33 -7 -103 52 -88 l26 6 0 -611 0 -611 -34 0 c-57
0 -86 -49 -50 -84 23 -24 455 -24 478 0 36 35 7 84 -50 84 l-34 0 0 611 0 611
26 -6 c59 -15 100 55 52 88 -19 13 -59 16 -233 16 -174 0 -214 -3 -233 -16z
m391 -53 c-17 -11 -35 -30 -39 -43 -4 -13 -7 -287 -7 -611 l0 -587 23 -25 c13
-14 30 -25 37 -25 8 0 11 -4 8 -10 -8 -13 -352 -13 -360 0 -3 6 1 10 9 10 8 0
24 12 35 26 21 26 21 35 21 624 l0 598 -35 31 -36 31 188 0 188 0 -32 -19z"/>
<path d="M1413 2006 l-28 -24 0 -600 0 -600 24 -26 c37 -39 100 -37 135 5 l26
31 0 590 0 590 -29 29 c-38 37 -88 39 -128 5z m115 -630 l2 -606 -55 0 -55 0
0 603 c0 332 2 606 4 608 2 2 26 3 53 3 l48 -1 3 -607z"/>
<path d="M1850 2070 c-38 -38 -14 -85 44 -85 l36 0 3 -608 2 -607 -36 0 c-59
0 -89 -49 -51 -83 16 -15 48 -17 236 -17 131 0 225 4 237 10 22 12 26 59 7 78
-7 7 -29 12 -50 12 l-38 0 0 611 0 612 29 -6 c57 -12 94 49 53 86 -16 15 -48
17 -235 17 -204 0 -218 -1 -237 -20z m387 -61 l-37 -30 0 -598 c0 -590 0 -599
21 -625 11 -14 27 -26 35 -26 8 0 14 -4 14 -10 0 -13 -150 -13 -170 0 -12 8
-9 10 12 10 17 0 34 10 47 26 21 26 21 35 21 621 l0 595 -29 29 c-50 49 -124
35 -150 -28 -8 -21 -11 -185 -9 -610 l3 -581 24 -26 c14 -14 34 -26 45 -26 17
0 18 -2 6 -10 -20 -13 -157 -13 -165 0 -3 6 0 10 8 10 7 0 24 12 38 26 l24 26
0 598 c0 584 0 598 -20 620 -11 12 -29 26 -40 31 -11 4 61 8 170 8 l190 1 -38
-31z m-97 -631 l0 -608 -52 0 -53 0 2 607 c2 335 3 608 3 608 0 0 23 0 50 0
l50 0 0 -607z"/>
<path d="M466 474 c-20 -19 -20 -34 0 -62 l15 -22 990 0 c976 0 989 0 1009 20
24 24 25 43 4 64 -14 14 -119 16 -1009 16 -890 0 -995 -2 -1009 -16z m1476
-31 c-259 -2 -685 -2 -945 0 -259 1 -47 2 473 2 520 0 732 -1 472 -2z"/>
<path d="M319 202 c-22 -15 -25 -55 -5 -71 19 -16 2303 -16 2322 0 18 15 18
53 0 68 -21 18 -2292 21 -2317 3z m594 -39 c-95 -2 -251 -2 -346 0 -94 1 -17
3 173 3 190 0 267 -2 173 -3z"/>
</g>
</svg>
